%TF.GenerationSoftware,KiCad,Pcbnew,10.0.1*%
%TF.CreationDate,2026-06-21T12:42:06+08:00*%
%TF.ProjectId,buzzer,62757a7a-6572-42e6-9b69-6361645f7063,rev?*%
%TF.SameCoordinates,Original*%
%TF.FileFunction,Copper,L1,Top*%
%TF.FilePolarity,Positive*%
%FSLAX46Y46*%
G04 Gerber Fmt 4.6, Leading zero omitted, Abs format (unit mm)*
G04 Created by KiCad (PCBNEW 10.0.1) date 2026-06-21 12:42:06*
%MOMM*%
%LPD*%
G01*
G04 APERTURE LIST*
G04 Aperture macros list*
%AMRoundRect*
0 Rectangle with rounded corners*
0 $1 Rounding radius*
0 $2 $3 $4 $5 $6 $7 $8 $9 X,Y pos of 4 corners*
0 Add a 4 corners polygon primitive as box body*
4,1,4,$2,$3,$4,$5,$6,$7,$8,$9,$2,$3,0*
0 Add four circle primitives for the rounded corners*
1,1,$1+$1,$2,$3*
1,1,$1+$1,$4,$5*
1,1,$1+$1,$6,$7*
1,1,$1+$1,$8,$9*
0 Add four rect primitives between the rounded corners*
20,1,$1+$1,$2,$3,$4,$5,0*
20,1,$1+$1,$4,$5,$6,$7,0*
20,1,$1+$1,$6,$7,$8,$9,0*
20,1,$1+$1,$8,$9,$2,$3,0*%
G04 Aperture macros list end*
%TA.AperFunction,ComponentPad*%
%ADD10C,2.200000*%
%TD*%
%TA.AperFunction,SMDPad,CuDef*%
%ADD11RoundRect,0.135000X-0.135000X-0.185000X0.135000X-0.185000X0.135000X0.185000X-0.135000X0.185000X0*%
%TD*%
%TA.AperFunction,ComponentPad*%
%ADD12C,2.300000*%
%TD*%
%TA.AperFunction,ComponentPad*%
%ADD13C,2.540000*%
%TD*%
%TA.AperFunction,SMDPad,CuDef*%
%ADD14RoundRect,0.090000X0.660000X0.360000X-0.660000X0.360000X-0.660000X-0.360000X0.660000X-0.360000X0*%
%TD*%
%TA.AperFunction,SMDPad,CuDef*%
%ADD15RoundRect,0.135000X0.185000X-0.135000X0.185000X0.135000X-0.185000X0.135000X-0.185000X-0.135000X0*%
%TD*%
%TA.AperFunction,SMDPad,CuDef*%
%ADD16RoundRect,0.100000X0.100000X-0.130000X0.100000X0.130000X-0.100000X0.130000X-0.100000X-0.130000X0*%
%TD*%
%TA.AperFunction,ViaPad*%
%ADD17C,0.600000*%
%TD*%
%TA.AperFunction,Conductor*%
%ADD18C,0.200000*%
%TD*%
%TA.AperFunction,Conductor*%
%ADD19C,1.500000*%
%TD*%
G04 APERTURE END LIST*
D10*
%TO.P,SW1,1,1_1*%
%TO.N,/RESET*%
X61910000Y-90180000D03*
%TO.P,SW1,2,2_2*%
%TO.N,GND*%
X68260000Y-87640000D03*
%TD*%
D11*
%TO.P,R1,1*%
%TO.N,/LED*%
X58440000Y-74450000D03*
%TO.P,R1,2*%
%TO.N,Net-(D2-DIN)*%
X59460000Y-74450000D03*
%TD*%
D12*
%TO.P,H4,*%
%TO.N,*%
X54100000Y-88500000D03*
%TD*%
D13*
%TO.P,BT1,1,+_1*%
%TO.N,/BAT_VIN*%
X61850000Y-95400000D03*
%TO.P,BT1,2,-_2*%
%TO.N,/BAT_GND*%
X66850000Y-95400000D03*
%TD*%
D14*
%TO.P,D2,1,VDD_1*%
%TO.N,/BAT_VIN*%
X67000000Y-76850000D03*
%TO.P,D2,2,DOUT_2*%
%TO.N,Net-(D2-DOUT)*%
X67000000Y-73550000D03*
%TO.P,D2,3,VSS_3*%
%TO.N,GND*%
X62100000Y-73550000D03*
%TO.P,D2,4,DIN_4*%
%TO.N,Net-(D2-DIN)*%
X62100000Y-76850000D03*
%TD*%
D12*
%TO.P,H3,*%
%TO.N,*%
X75300000Y-88350000D03*
%TD*%
D15*
%TO.P,R2,1*%
%TO.N,Net-(D2-DOUT)*%
X67700000Y-67860000D03*
%TO.P,R2,2*%
%TO.N,unconnected-(R2-Pad2)*%
X67700000Y-66840000D03*
%TD*%
D16*
%TO.P,C1,1*%
%TO.N,GND*%
X69000000Y-73700000D03*
%TO.P,C1,2*%
%TO.N,/BAT_VIN*%
X69000000Y-73060000D03*
%TD*%
D17*
%TO.N,*%
X60350000Y-64900000D03*
X59500000Y-64850000D03*
X59500000Y-64050000D03*
X58700000Y-64050000D03*
X58700000Y-64850000D03*
X60350000Y-64050000D03*
%TO.N,/RESET*%
X56800000Y-76960000D03*
%TO.N,GND*%
X52750000Y-95200000D03*
X61920000Y-72630000D03*
X56300000Y-95250000D03*
X75150000Y-92800000D03*
X54550000Y-93850000D03*
X53600000Y-96000000D03*
X73350000Y-95650000D03*
X80225000Y-76100000D03*
X53050000Y-75100000D03*
X76050000Y-92800000D03*
X73350000Y-93550000D03*
X53050000Y-74350000D03*
X72500000Y-92750000D03*
X74250000Y-94850000D03*
X54500000Y-95200000D03*
X55450000Y-93100000D03*
X72500000Y-93550000D03*
X74250000Y-95650000D03*
X72500000Y-95650000D03*
X73350000Y-94850000D03*
X75150000Y-95650000D03*
X56350000Y-93100000D03*
X74250000Y-93550000D03*
X52800000Y-93050000D03*
X80225000Y-85350000D03*
X75150000Y-94900000D03*
X48675000Y-92600000D03*
X56800000Y-66800000D03*
X76050000Y-94900000D03*
X53050000Y-73550000D03*
X52750000Y-96000000D03*
X53650000Y-93850000D03*
X56300000Y-96000000D03*
X75150000Y-93550000D03*
X55450000Y-93850000D03*
X73350000Y-92750000D03*
X48675000Y-83300000D03*
X55400000Y-95250000D03*
X72500000Y-94850000D03*
X52800000Y-93850000D03*
X53600000Y-95200000D03*
X74250000Y-92750000D03*
X69750000Y-67500000D03*
X76050000Y-93550000D03*
X55400000Y-96000000D03*
X56350000Y-93850000D03*
X80225000Y-94500000D03*
X53650000Y-93050000D03*
X76050000Y-95650000D03*
X69750000Y-65200000D03*
X80200000Y-66900000D03*
X63150000Y-65740000D03*
X53050000Y-72750000D03*
X54500000Y-96000000D03*
X69750000Y-66000000D03*
X69750000Y-66750000D03*
X48675000Y-74050000D03*
X54550000Y-93050000D03*
X48700000Y-64850000D03*
%TO.N,/LED*%
X56800000Y-74420000D03*
%TO.N,/BAT_VIN*%
X69020000Y-71680000D03*
%TO.N,/BAT_GND*%
X69030832Y-69608199D03*
%TD*%
%TO.N,/RESET*%
D18*
X56800000Y-76960000D02*
X56800000Y-85070000D01*
X56800000Y-85070000D02*
X61910000Y-90180000D01*
%TO.N,/LED*%
X58410000Y-74420000D02*
X58440000Y-74450000D01*
X56800000Y-74420000D02*
X58410000Y-74420000D01*
%TO.N,Net-(D2-DIN)*%
X59700000Y-74450000D02*
X62100000Y-76850000D01*
X59460000Y-74450000D02*
X59700000Y-74450000D01*
%TO.N,/BAT_VIN*%
D19*
X61450000Y-86585282D02*
X61450000Y-82400000D01*
X61450000Y-82400000D02*
X67000000Y-76850000D01*
D18*
X69000000Y-71700000D02*
X69020000Y-71680000D01*
D19*
X61850000Y-95400000D02*
X66057359Y-91192641D01*
X66057359Y-91192641D02*
X61450000Y-86585282D01*
D18*
X69000000Y-73060000D02*
X69000000Y-71700000D01*
%TO.N,/BAT_GND*%
D19*
X71400000Y-90850000D02*
X71400000Y-72000000D01*
X71400000Y-72000000D02*
X69050000Y-69650000D01*
X66850000Y-95400000D02*
X71400000Y-90850000D01*
%TO.N,Net-(D2-DOUT)*%
D18*
X67000000Y-73550000D02*
X67000000Y-68000000D01*
X67000000Y-68000000D02*
X67140000Y-67860000D01*
X67140000Y-67860000D02*
X67700000Y-67860000D01*
%TD*%
%TA.AperFunction,Conductor*%
%TO.N,GND*%
G36*
X82492539Y-61870185D02*
G01*
X82538294Y-61922989D01*
X82549500Y-61974500D01*
X82549500Y-97525500D01*
X82529815Y-97592539D01*
X82477011Y-97638294D01*
X82425500Y-97649500D01*
X46424500Y-97649500D01*
X46357461Y-97629815D01*
X46311706Y-97577011D01*
X46300500Y-97525500D01*
X46300500Y-88370097D01*
X52449500Y-88370097D01*
X52449500Y-88629902D01*
X52490140Y-88886493D01*
X52570422Y-89133576D01*
X52688368Y-89365054D01*
X52824641Y-89552618D01*
X52841069Y-89575229D01*
X53024771Y-89758931D01*
X53234949Y-89911634D01*
X53382445Y-89986787D01*
X53466423Y-90029577D01*
X53466425Y-90029577D01*
X53466428Y-90029579D01*
X53713507Y-90109860D01*
X53845706Y-90130797D01*
X53970098Y-90150500D01*
X53970103Y-90150500D01*
X54229902Y-90150500D01*
X54343298Y-90132539D01*
X54486493Y-90109860D01*
X54733572Y-90029579D01*
X54965051Y-89911634D01*
X55175229Y-89758931D01*
X55358931Y-89575229D01*
X55511634Y-89365051D01*
X55629579Y-89133572D01*
X55709860Y-88886493D01*
X55738861Y-88703383D01*
X55750500Y-88629902D01*
X55750500Y-88370097D01*
X55726742Y-88220097D01*
X55709860Y-88113507D01*
X55629579Y-87866428D01*
X55629577Y-87866425D01*
X55629577Y-87866423D01*
X55578371Y-87765928D01*
X55511634Y-87634949D01*
X55358931Y-87424771D01*
X55175229Y-87241069D01*
X54968774Y-87091071D01*
X54965054Y-87088368D01*
X54965053Y-87088367D01*
X54965051Y-87088366D01*
X54892764Y-87051534D01*
X54733576Y-86970422D01*
X54486493Y-86890140D01*
X54229902Y-86849500D01*
X54229897Y-86849500D01*
X53970103Y-86849500D01*
X53970098Y-86849500D01*
X53713506Y-86890140D01*
X53466423Y-86970422D01*
X53234945Y-87088368D01*
X53024774Y-87241066D01*
X53024768Y-87241071D01*
X52841071Y-87424768D01*
X52841066Y-87424774D01*
X52688368Y-87634945D01*
X52570422Y-87866423D01*
X52490140Y-88113506D01*
X52449500Y-88370097D01*
X46300500Y-88370097D01*
X46300500Y-76881153D01*
X55999500Y-76881153D01*
X55999500Y-77038846D01*
X56030261Y-77193489D01*
X56030264Y-77193501D01*
X56090602Y-77339172D01*
X56090609Y-77339185D01*
X56178602Y-77470874D01*
X56199480Y-77537551D01*
X56199500Y-77539765D01*
X56199500Y-84983330D01*
X56199499Y-84983348D01*
X56199499Y-85149054D01*
X56199498Y-85149054D01*
X56240424Y-85301787D01*
X56259473Y-85334780D01*
X56259474Y-85334783D01*
X56319475Y-85438709D01*
X56319481Y-85438717D01*
X56438349Y-85557585D01*
X56438355Y-85557590D01*
X60377841Y-89497076D01*
X60411326Y-89558399D01*
X60408091Y-89623076D01*
X60363949Y-89758931D01*
X60348910Y-89805215D01*
X60309500Y-90054038D01*
X60309500Y-90305962D01*
X60346324Y-90538460D01*
X60348910Y-90554785D01*
X60426760Y-90794383D01*
X60541132Y-91018848D01*
X60689201Y-91222649D01*
X60689205Y-91222654D01*
X60867345Y-91400794D01*
X60867350Y-91400798D01*
X60983889Y-91485468D01*
X61071155Y-91548870D01*
X61214184Y-91621747D01*
X61295616Y-91663239D01*
X61295618Y-91663239D01*
X61295621Y-91663241D01*
X61535215Y-91741090D01*
X61784038Y-91780500D01*
X61784039Y-91780500D01*
X62035961Y-91780500D01*
X62035962Y-91780500D01*
X62284785Y-91741090D01*
X62524379Y-91663241D01*
X62748845Y-91548870D01*
X62952656Y-91400793D01*
X63130793Y-91222656D01*
X63278870Y-91018845D01*
X63393241Y-90794379D01*
X63452688Y-90611417D01*
X63492125Y-90553743D01*
X63556484Y-90526545D01*
X63625330Y-90538460D01*
X63658300Y-90562056D01*
X64201204Y-91104960D01*
X64234689Y-91166283D01*
X64229705Y-91235975D01*
X64201204Y-91280322D01*
X61888345Y-93593181D01*
X61827022Y-93626666D01*
X61800664Y-93629500D01*
X61733947Y-93629500D01*
X61503851Y-93659794D01*
X61279671Y-93719862D01*
X61065254Y-93808677D01*
X61065237Y-93808685D01*
X60864256Y-93924720D01*
X60864254Y-93924721D01*
X60680124Y-94066009D01*
X60680117Y-94066015D01*
X60516015Y-94230117D01*
X60516009Y-94230124D01*
X60374721Y-94414254D01*
X60374720Y-94414256D01*
X60258685Y-94615237D01*
X60258677Y-94615254D01*
X60169862Y-94829671D01*
X60109794Y-95053851D01*
X60079500Y-95283947D01*
X60079500Y-95516052D01*
X60109794Y-95746148D01*
X60169862Y-95970328D01*
X60258677Y-96184745D01*
X60258685Y-96184762D01*
X60374720Y-96385743D01*
X60374721Y-96385745D01*
X60516009Y-96569875D01*
X60516015Y-96569882D01*
X60680117Y-96733984D01*
X60680124Y-96733990D01*
X60864254Y-96875278D01*
X60864256Y-96875279D01*
X61065237Y-96991314D01*
X61065240Y-96991315D01*
X61065248Y-96991320D01*
X61279670Y-97080137D01*
X61503851Y-97140206D01*
X61733955Y-97170500D01*
X61733962Y-97170500D01*
X61966038Y-97170500D01*
X61966045Y-97170500D01*
X62196149Y-97140206D01*
X62420330Y-97080137D01*
X62634752Y-96991320D01*
X62835748Y-96875276D01*
X63019877Y-96733989D01*
X63183989Y-96569877D01*
X63325276Y-96385748D01*
X63441320Y-96184752D01*
X63530137Y-95970330D01*
X63590206Y-95746149D01*
X63620500Y-95516045D01*
X63620500Y-95449335D01*
X63629144Y-95419894D01*
X63635668Y-95389908D01*
X63639422Y-95384892D01*
X63640185Y-95382296D01*
X63656814Y-95361659D01*
X63734526Y-95283947D01*
X65079500Y-95283947D01*
X65079500Y-95516052D01*
X65109794Y-95746148D01*
X65169862Y-95970328D01*
X65258677Y-96184745D01*
X65258685Y-96184762D01*
X65374720Y-96385743D01*
X65374721Y-96385745D01*
X65516009Y-96569875D01*
X65516015Y-96569882D01*
X65680117Y-96733984D01*
X65680124Y-96733990D01*
X65864254Y-96875278D01*
X65864256Y-96875279D01*
X66065237Y-96991314D01*
X66065240Y-96991315D01*
X66065248Y-96991320D01*
X66279670Y-97080137D01*
X66503851Y-97140206D01*
X66733955Y-97170500D01*
X66733962Y-97170500D01*
X66966038Y-97170500D01*
X66966045Y-97170500D01*
X67196149Y-97140206D01*
X67420330Y-97080137D01*
X67634752Y-96991320D01*
X67835748Y-96875276D01*
X68019877Y-96733989D01*
X68183989Y-96569877D01*
X68325276Y-96385748D01*
X68441320Y-96184752D01*
X68530137Y-95970330D01*
X68590206Y-95746149D01*
X68620500Y-95516045D01*
X68620500Y-95449335D01*
X68640185Y-95382297D01*
X68656819Y-95361655D01*
X70425293Y-93593181D01*
X72353829Y-91664645D01*
X72469524Y-91505405D01*
X72558884Y-91330026D01*
X72619709Y-91142826D01*
X72627407Y-91094225D01*
X72650500Y-90948421D01*
X72650500Y-88220097D01*
X73649500Y-88220097D01*
X73649500Y-88479902D01*
X73690140Y-88736493D01*
X73770422Y-88983576D01*
X73841351Y-89122780D01*
X73888366Y-89215051D01*
X74041069Y-89425229D01*
X74224771Y-89608931D01*
X74434949Y-89761634D01*
X74582445Y-89836787D01*
X74666423Y-89879577D01*
X74666425Y-89879577D01*
X74666428Y-89879579D01*
X74913507Y-89959860D01*
X75045706Y-89980797D01*
X75170098Y-90000500D01*
X75170103Y-90000500D01*
X75429902Y-90000500D01*
X75543298Y-89982539D01*
X75686493Y-89959860D01*
X75933572Y-89879579D01*
X76165051Y-89761634D01*
X76375229Y-89608931D01*
X76558931Y-89425229D01*
X76711634Y-89215051D01*
X76829579Y-88983572D01*
X76909860Y-88736493D01*
X76937035Y-88564916D01*
X76950500Y-88479902D01*
X76950500Y-88220097D01*
X76917963Y-88014669D01*
X76909860Y-87963507D01*
X76829579Y-87716428D01*
X76829577Y-87716425D01*
X76829577Y-87716423D01*
X76752998Y-87566131D01*
X76711634Y-87484949D01*
X76558931Y-87274771D01*
X76375229Y-87091069D01*
X76375225Y-87091066D01*
X76165054Y-86938368D01*
X76165053Y-86938367D01*
X76165051Y-86938366D01*
X76046789Y-86878108D01*
X75933576Y-86820422D01*
X75686493Y-86740140D01*
X75429902Y-86699500D01*
X75429897Y-86699500D01*
X75170103Y-86699500D01*
X75170098Y-86699500D01*
X74913506Y-86740140D01*
X74666423Y-86820422D01*
X74434945Y-86938368D01*
X74224774Y-87091066D01*
X74224768Y-87091071D01*
X74041071Y-87274768D01*
X74041066Y-87274774D01*
X73888368Y-87484945D01*
X73770422Y-87716423D01*
X73690140Y-87963506D01*
X73649500Y-88220097D01*
X72650500Y-88220097D01*
X72650500Y-71901577D01*
X72627892Y-71758842D01*
X72619709Y-71707174D01*
X72619708Y-71707170D01*
X72619708Y-71707169D01*
X72560391Y-71524612D01*
X72559329Y-71520847D01*
X72469523Y-71344594D01*
X72353828Y-71185354D01*
X69864646Y-68696172D01*
X69705405Y-68580476D01*
X69530030Y-68491117D01*
X69342826Y-68430290D01*
X69148422Y-68399500D01*
X69148417Y-68399500D01*
X68951583Y-68399500D01*
X68951578Y-68399500D01*
X68757172Y-68430291D01*
X68757169Y-68430291D01*
X68584907Y-68486263D01*
X68515066Y-68488258D01*
X68455233Y-68452178D01*
X68424405Y-68389477D01*
X68432370Y-68320062D01*
X68439848Y-68305227D01*
X68472869Y-68249393D01*
X68517665Y-68095204D01*
X68520500Y-68059181D01*
X68520499Y-67660820D01*
X68517665Y-67624796D01*
X68472869Y-67470607D01*
X68438869Y-67413117D01*
X68421688Y-67345398D01*
X68438869Y-67286882D01*
X68472869Y-67229393D01*
X68517665Y-67075204D01*
X68520500Y-67039181D01*
X68520499Y-66640820D01*
X68517665Y-66604796D01*
X68472869Y-66450607D01*
X68391135Y-66312402D01*
X68391133Y-66312400D01*
X68391130Y-66312396D01*
X68277603Y-66198869D01*
X68277595Y-66198863D01*
X68139393Y-66117131D01*
X68139388Y-66117129D01*
X67985208Y-66072335D01*
X67985202Y-66072334D01*
X67949181Y-66069500D01*
X67450830Y-66069500D01*
X67450808Y-66069501D01*
X67414794Y-66072335D01*
X67260611Y-66117129D01*
X67260606Y-66117131D01*
X67122404Y-66198863D01*
X67122396Y-66198869D01*
X67008869Y-66312396D01*
X67008863Y-66312404D01*
X66927131Y-66450606D01*
X66927129Y-66450611D01*
X66882335Y-66604791D01*
X66882334Y-66604797D01*
X66879500Y-66640811D01*
X66879500Y-67039169D01*
X66879501Y-67039191D01*
X66882334Y-67075201D01*
X66914960Y-67187501D01*
X66914760Y-67257370D01*
X66876817Y-67316040D01*
X66857883Y-67329482D01*
X66771287Y-67379477D01*
X66771282Y-67379481D01*
X66633856Y-67516907D01*
X66633847Y-67516916D01*
X66631286Y-67519478D01*
X66631284Y-67519480D01*
X66519480Y-67631284D01*
X66502428Y-67660820D01*
X66440423Y-67768215D01*
X66399499Y-67920943D01*
X66399499Y-67920945D01*
X66399499Y-68089046D01*
X66399500Y-68089059D01*
X66399500Y-72477827D01*
X66379815Y-72544866D01*
X66327011Y-72590621D01*
X66291684Y-72600766D01*
X66185857Y-72614697D01*
X66185848Y-72614699D01*
X66042205Y-72674198D01*
X65918851Y-72768851D01*
X65824198Y-72892205D01*
X65764699Y-73035848D01*
X65764698Y-73035850D01*
X65749500Y-73151298D01*
X65749500Y-73948703D01*
X65764696Y-74064142D01*
X65764699Y-74064151D01*
X65824093Y-74207541D01*
X65824200Y-74207798D01*
X65918851Y-74331149D01*
X66042202Y-74425800D01*
X66185849Y-74485301D01*
X66301299Y-74500500D01*
X67698700Y-74500499D01*
X67698703Y-74500499D01*
X67814142Y-74485303D01*
X67814146Y-74485301D01*
X67814151Y-74485301D01*
X67957798Y-74425800D01*
X68081149Y-74331149D01*
X68175800Y-74207798D01*
X68183990Y-74188025D01*
X68227828Y-74133623D01*
X68294121Y-74111556D01*
X68361821Y-74128833D01*
X68396926Y-74159990D01*
X68472073Y-74257922D01*
X68597414Y-74354100D01*
X68743366Y-74414555D01*
X68743372Y-74414557D01*
X68799998Y-74422011D01*
X68800000Y-74422010D01*
X69200000Y-74422010D01*
X69200001Y-74422011D01*
X69256627Y-74414557D01*
X69256633Y-74414555D01*
X69402585Y-74354100D01*
X69527924Y-74257924D01*
X69624100Y-74132586D01*
X69684554Y-73986634D01*
X69684555Y-73986630D01*
X69695961Y-73900000D01*
X69200000Y-73900000D01*
X69200000Y-74422010D01*
X68800000Y-74422010D01*
X68800000Y-73824000D01*
X68819685Y-73756961D01*
X68872489Y-73711206D01*
X68924000Y-73700000D01*
X68999999Y-73700000D01*
X69003737Y-73696262D01*
X69065059Y-73662776D01*
X69075235Y-73661003D01*
X69079055Y-73660500D01*
X69079057Y-73660500D01*
X69231784Y-73619577D01*
X69368716Y-73540520D01*
X69372917Y-73536319D01*
X69434240Y-73502834D01*
X69460598Y-73500000D01*
X69695959Y-73500000D01*
X69695960Y-73499998D01*
X69684557Y-73413372D01*
X69684555Y-73413366D01*
X69624100Y-73267412D01*
X69624099Y-73267411D01*
X69618341Y-73259907D01*
X69593148Y-73194738D01*
X69596943Y-73152329D01*
X69600500Y-73139057D01*
X69600500Y-72282940D01*
X69609144Y-72253499D01*
X69615668Y-72223513D01*
X69619422Y-72218497D01*
X69620185Y-72215901D01*
X69636819Y-72195259D01*
X69644121Y-72187957D01*
X69705444Y-72154472D01*
X69775136Y-72159456D01*
X69819483Y-72187957D01*
X70113181Y-72481655D01*
X70146666Y-72542978D01*
X70149500Y-72569336D01*
X70149500Y-83978181D01*
X70129815Y-84045220D01*
X70077011Y-84090975D01*
X70007853Y-84100919D01*
X69969207Y-84088667D01*
X69952448Y-84080128D01*
X69845013Y-84045220D01*
X69787701Y-84026598D01*
X69787699Y-84026597D01*
X69787698Y-84026597D01*
X69656271Y-84005781D01*
X69616611Y-83999500D01*
X69443389Y-83999500D01*
X69403728Y-84005781D01*
X69272302Y-84026597D01*
X69107552Y-84080128D01*
X68953211Y-84158768D01*
X68910500Y-84189800D01*
X68813072Y-84260586D01*
X68813070Y-84260588D01*
X68813069Y-84260588D01*
X68690588Y-84383069D01*
X68690588Y-84383070D01*
X68690586Y-84383072D01*
X68646859Y-84443256D01*
X68588768Y-84523211D01*
X68510128Y-84677552D01*
X68456597Y-84842302D01*
X68429500Y-85013389D01*
X68429500Y-85186610D01*
X68456597Y-85357697D01*
X68456597Y-85357699D01*
X68456598Y-85357701D01*
X68510127Y-85522445D01*
X68588768Y-85676788D01*
X68690586Y-85816928D01*
X68690588Y-85816930D01*
X68743117Y-85869459D01*
X68776602Y-85930782D01*
X68771618Y-86000474D01*
X68729746Y-86056407D01*
X68664282Y-86080824D01*
X68636038Y-86079613D01*
X68385928Y-86040000D01*
X68134072Y-86040000D01*
X67885330Y-86079397D01*
X67645815Y-86157219D01*
X67421413Y-86271559D01*
X67319301Y-86345747D01*
X67319300Y-86345748D01*
X67935974Y-86962421D01*
X67904742Y-86975359D01*
X67781903Y-87057437D01*
X67677437Y-87161903D01*
X67595359Y-87284742D01*
X67582421Y-87315974D01*
X66965748Y-86699300D01*
X66965747Y-86699301D01*
X66891559Y-86801413D01*
X66777219Y-87025815D01*
X66699397Y-87265330D01*
X66660000Y-87514071D01*
X66660000Y-87765928D01*
X66699397Y-88014669D01*
X66777219Y-88254184D01*
X66891557Y-88478583D01*
X66965748Y-88580697D01*
X66965748Y-88580698D01*
X67582421Y-87964024D01*
X67595359Y-87995258D01*
X67677437Y-88118097D01*
X67781903Y-88222563D01*
X67904742Y-88304641D01*
X67935974Y-88317577D01*
X67319300Y-88934250D01*
X67421416Y-89008442D01*
X67645815Y-89122780D01*
X67885330Y-89200602D01*
X68134072Y-89240000D01*
X68385928Y-89240000D01*
X68634669Y-89200602D01*
X68874184Y-89122780D01*
X69098575Y-89008446D01*
X69098581Y-89008442D01*
X69200697Y-88934250D01*
X69200698Y-88934250D01*
X68584025Y-88317578D01*
X68615258Y-88304641D01*
X68738097Y-88222563D01*
X68842563Y-88118097D01*
X68924641Y-87995258D01*
X68937578Y-87964025D01*
X69554250Y-88580698D01*
X69554250Y-88580697D01*
X69628442Y-88478581D01*
X69628446Y-88478575D01*
X69742780Y-88254184D01*
X69820602Y-88014669D01*
X69860000Y-87765928D01*
X69860000Y-87514071D01*
X69820602Y-87265330D01*
X69742780Y-87025815D01*
X69628442Y-86801416D01*
X69554250Y-86699301D01*
X69554250Y-86699300D01*
X68937577Y-87315973D01*
X68924641Y-87284742D01*
X68842563Y-87161903D01*
X68738097Y-87057437D01*
X68615258Y-86975359D01*
X68584024Y-86962421D01*
X69200697Y-86345749D01*
X69198400Y-86316551D01*
X69212764Y-86248174D01*
X69261816Y-86198417D01*
X69329981Y-86183078D01*
X69341414Y-86184348D01*
X69443389Y-86200500D01*
X69443390Y-86200500D01*
X69616610Y-86200500D01*
X69616611Y-86200500D01*
X69787701Y-86173402D01*
X69952445Y-86119873D01*
X69969204Y-86111333D01*
X70037872Y-86098437D01*
X70102613Y-86124712D01*
X70142871Y-86181818D01*
X70149500Y-86221818D01*
X70149500Y-90280664D01*
X70129815Y-90347703D01*
X70113181Y-90368345D01*
X66888345Y-93593181D01*
X66827022Y-93626666D01*
X66800664Y-93629500D01*
X66733947Y-93629500D01*
X66503851Y-93659794D01*
X66279671Y-93719862D01*
X66065254Y-93808677D01*
X66065237Y-93808685D01*
X65864256Y-93924720D01*
X65864254Y-93924721D01*
X65680124Y-94066009D01*
X65680117Y-94066015D01*
X65516015Y-94230117D01*
X65516009Y-94230124D01*
X65374721Y-94414254D01*
X65374720Y-94414256D01*
X65258685Y-94615237D01*
X65258677Y-94615254D01*
X65169862Y-94829671D01*
X65109794Y-95053851D01*
X65079500Y-95283947D01*
X63734526Y-95283947D01*
X66864936Y-92153536D01*
X66864943Y-92153531D01*
X66872003Y-92146471D01*
X66872005Y-92146470D01*
X67011188Y-92007287D01*
X67126883Y-91848047D01*
X67216243Y-91672667D01*
X67277068Y-91485468D01*
X67307859Y-91291063D01*
X67307859Y-91094219D01*
X67277068Y-90899814D01*
X67216241Y-90712610D01*
X67139529Y-90562056D01*
X67126883Y-90537236D01*
X67011188Y-90377996D01*
X64193657Y-87560465D01*
X64160172Y-87499142D01*
X64165156Y-87429450D01*
X64207028Y-87373517D01*
X64272492Y-87349100D01*
X64297524Y-87349845D01*
X64302494Y-87350500D01*
X64302501Y-87350500D01*
X64597499Y-87350500D01*
X64597506Y-87350500D01*
X64889993Y-87311993D01*
X65174952Y-87235639D01*
X65447507Y-87122743D01*
X65702994Y-86975238D01*
X65937042Y-86795646D01*
X66145646Y-86587042D01*
X66325238Y-86352994D01*
X66472743Y-86097507D01*
X66585639Y-85824952D01*
X66661993Y-85539993D01*
X66700500Y-85247506D01*
X66700500Y-84952494D01*
X66661993Y-84660007D01*
X66585639Y-84375048D01*
X66472743Y-84102493D01*
X66471834Y-84100919D01*
X66325238Y-83847006D01*
X66145647Y-83612959D01*
X66145641Y-83612952D01*
X65937047Y-83404358D01*
X65937040Y-83404352D01*
X65702993Y-83224761D01*
X65447510Y-83077258D01*
X65447500Y-83077254D01*
X65174961Y-82964364D01*
X65174954Y-82964362D01*
X65174952Y-82964361D01*
X64889993Y-82888007D01*
X64841113Y-82881571D01*
X64597513Y-82849500D01*
X64597506Y-82849500D01*
X64302494Y-82849500D01*
X64302486Y-82849500D01*
X64024085Y-82886153D01*
X64010007Y-82888007D01*
X63898168Y-82917974D01*
X63725048Y-82964361D01*
X63725038Y-82964364D01*
X63452499Y-83077254D01*
X63452489Y-83077258D01*
X63197006Y-83224761D01*
X62962959Y-83404352D01*
X62962952Y-83404358D01*
X62912181Y-83455130D01*
X62850858Y-83488615D01*
X62781166Y-83483631D01*
X62725233Y-83441759D01*
X62700816Y-83376295D01*
X62700500Y-83367449D01*
X62700500Y-82969335D01*
X62720185Y-82902296D01*
X62736814Y-82881659D01*
X67829184Y-77789288D01*
X67869408Y-77762411D01*
X67957798Y-77725800D01*
X68081149Y-77631149D01*
X68175800Y-77507798D01*
X68235301Y-77364151D01*
X68250500Y-77248701D01*
X68250500Y-76880943D01*
X68250500Y-76751584D01*
X68250500Y-76743989D01*
X68250499Y-76743971D01*
X68250499Y-76451296D01*
X68235303Y-76335857D01*
X68235301Y-76335852D01*
X68235301Y-76335849D01*
X68175800Y-76192202D01*
X68081149Y-76068851D01*
X67957798Y-75974200D01*
X67869408Y-75937587D01*
X67829181Y-75910707D01*
X67814648Y-75896174D01*
X67814647Y-75896173D01*
X67814646Y-75896172D01*
X67754714Y-75852629D01*
X67655409Y-75780478D01*
X67655406Y-75780477D01*
X67655407Y-75780477D01*
X67655405Y-75780476D01*
X67599131Y-75751803D01*
X67480030Y-75691118D01*
X67435117Y-75676525D01*
X67292826Y-75630291D01*
X67292820Y-75630290D01*
X67098421Y-75599500D01*
X67098416Y-75599500D01*
X66901583Y-75599500D01*
X66901578Y-75599500D01*
X66707178Y-75630290D01*
X66707176Y-75630290D01*
X66707173Y-75630291D01*
X66613573Y-75660704D01*
X66519969Y-75691118D01*
X66344593Y-75780477D01*
X66344584Y-75780483D01*
X66185360Y-75896166D01*
X66185352Y-75896173D01*
X66170812Y-75910712D01*
X66130591Y-75937586D01*
X66042203Y-75974199D01*
X65918851Y-76068851D01*
X65824199Y-76192203D01*
X65787586Y-76280591D01*
X65760707Y-76320817D01*
X60496174Y-81585351D01*
X60496172Y-81585354D01*
X60446485Y-81653741D01*
X60380476Y-81744594D01*
X60290669Y-81920851D01*
X60289608Y-81924612D01*
X60230291Y-82107169D01*
X60230291Y-82107172D01*
X60199500Y-82301577D01*
X60199500Y-84099010D01*
X60179815Y-84166049D01*
X60127011Y-84211804D01*
X60057853Y-84221748D01*
X60002615Y-84199328D01*
X59946791Y-84158770D01*
X59946790Y-84158769D01*
X59946788Y-84158768D01*
X59792445Y-84080127D01*
X59627701Y-84026598D01*
X59627699Y-84026597D01*
X59627698Y-84026597D01*
X59496271Y-84005781D01*
X59456611Y-83999500D01*
X59283389Y-83999500D01*
X59243728Y-84005781D01*
X59112302Y-84026597D01*
X58947552Y-84080128D01*
X58793211Y-84158768D01*
X58750500Y-84189800D01*
X58653072Y-84260586D01*
X58653070Y-84260588D01*
X58653069Y-84260588D01*
X58530588Y-84383069D01*
X58530588Y-84383070D01*
X58530586Y-84383072D01*
X58486859Y-84443256D01*
X58428768Y-84523211D01*
X58350128Y-84677552D01*
X58296597Y-84842302D01*
X58269500Y-85013389D01*
X58269500Y-85186610D01*
X58296597Y-85357698D01*
X58296598Y-85357702D01*
X58310099Y-85399254D01*
X58312094Y-85469095D01*
X58276013Y-85528928D01*
X58213312Y-85559755D01*
X58143898Y-85551790D01*
X58104487Y-85525252D01*
X57436819Y-84857584D01*
X57403334Y-84796261D01*
X57400500Y-84769903D01*
X57400500Y-77539765D01*
X57420185Y-77472726D01*
X57421398Y-77470874D01*
X57509390Y-77339185D01*
X57509390Y-77339184D01*
X57509394Y-77339179D01*
X57569737Y-77193497D01*
X57600500Y-77038842D01*
X57600500Y-76881158D01*
X57600500Y-76881155D01*
X57600499Y-76881153D01*
X57573215Y-76743989D01*
X57569737Y-76726503D01*
X57569735Y-76726498D01*
X57509397Y-76580827D01*
X57509390Y-76580814D01*
X57421789Y-76449711D01*
X57421786Y-76449707D01*
X57310292Y-76338213D01*
X57310288Y-76338210D01*
X57179185Y-76250609D01*
X57179172Y-76250602D01*
X57033501Y-76190264D01*
X57033489Y-76190261D01*
X56878845Y-76159500D01*
X56878842Y-76159500D01*
X56721158Y-76159500D01*
X56721155Y-76159500D01*
X56566510Y-76190261D01*
X56566498Y-76190264D01*
X56420827Y-76250602D01*
X56420814Y-76250609D01*
X56289711Y-76338210D01*
X56289707Y-76338213D01*
X56178213Y-76449707D01*
X56178210Y-76449711D01*
X56090609Y-76580814D01*
X56090602Y-76580827D01*
X56030264Y-76726498D01*
X56030261Y-76726510D01*
X55999500Y-76881153D01*
X46300500Y-76881153D01*
X46300500Y-74341153D01*
X55999500Y-74341153D01*
X55999500Y-74498846D01*
X56030261Y-74653489D01*
X56030264Y-74653501D01*
X56090602Y-74799172D01*
X56090609Y-74799185D01*
X56178210Y-74930288D01*
X56178213Y-74930292D01*
X56289707Y-75041786D01*
X56289711Y-75041789D01*
X56420814Y-75129390D01*
X56420827Y-75129397D01*
X56564412Y-75188871D01*
X56566503Y-75189737D01*
X56721153Y-75220499D01*
X56721156Y-75220500D01*
X56721158Y-75220500D01*
X56878844Y-75220500D01*
X56878845Y-75220499D01*
X57033497Y-75189737D01*
X57179179Y-75129394D01*
X57179185Y-75129390D01*
X57310875Y-75041398D01*
X57377553Y-75020520D01*
X57379766Y-75020500D01*
X57740405Y-75020500D01*
X57807444Y-75040185D01*
X57828081Y-75056814D01*
X57912402Y-75141135D01*
X58050607Y-75222869D01*
X58050614Y-75222871D01*
X58204791Y-75267664D01*
X58204794Y-75267664D01*
X58204796Y-75267665D01*
X58240819Y-75270500D01*
X58639180Y-75270499D01*
X58675204Y-75267665D01*
X58829393Y-75222869D01*
X58886882Y-75188869D01*
X58954602Y-75171688D01*
X59013117Y-75188869D01*
X59070607Y-75222869D01*
X59070610Y-75222869D01*
X59070612Y-75222871D01*
X59224791Y-75267664D01*
X59224794Y-75267664D01*
X59224796Y-75267665D01*
X59260819Y-75270500D01*
X59619902Y-75270499D01*
X59686941Y-75290183D01*
X59707583Y-75306818D01*
X60813181Y-76412416D01*
X60846666Y-76473739D01*
X60849500Y-76500097D01*
X60849500Y-77248703D01*
X60864696Y-77364142D01*
X60864699Y-77364151D01*
X60909672Y-77472726D01*
X60924200Y-77507798D01*
X61018851Y-77631149D01*
X61142202Y-77725800D01*
X61285849Y-77785301D01*
X61401299Y-77800500D01*
X62798700Y-77800499D01*
X62798703Y-77800499D01*
X62914142Y-77785303D01*
X62914146Y-77785301D01*
X62914151Y-77785301D01*
X63057798Y-77725800D01*
X63181149Y-77631149D01*
X63275800Y-77507798D01*
X63335301Y-77364151D01*
X63350500Y-77248701D01*
X63350499Y-76451300D01*
X63350499Y-76451299D01*
X63350499Y-76451296D01*
X63335303Y-76335857D01*
X63335301Y-76335852D01*
X63335301Y-76335849D01*
X63275800Y-76192202D01*
X63181149Y-76068851D01*
X63057798Y-75974200D01*
X63057794Y-75974198D01*
X62914151Y-75914699D01*
X62914149Y-75914698D01*
X62798702Y-75899500D01*
X62798701Y-75899500D01*
X62050098Y-75899500D01*
X61983059Y-75879815D01*
X61962417Y-75863181D01*
X60235285Y-74136050D01*
X60203891Y-74082967D01*
X60182869Y-74010607D01*
X60146240Y-73948670D01*
X60850000Y-73948670D01*
X60865185Y-74064019D01*
X60865187Y-74064024D01*
X60924633Y-74207541D01*
X60924633Y-74207542D01*
X61019207Y-74330792D01*
X61142458Y-74425366D01*
X61285975Y-74484812D01*
X61285980Y-74484814D01*
X61401329Y-74500000D01*
X61850000Y-74500000D01*
X62350000Y-74500000D01*
X62798671Y-74500000D01*
X62914019Y-74484814D01*
X62914024Y-74484812D01*
X63057541Y-74425366D01*
X63057542Y-74425366D01*
X63180792Y-74330792D01*
X63275366Y-74207542D01*
X63275366Y-74207541D01*
X63334812Y-74064024D01*
X63334814Y-74064019D01*
X63350000Y-73948670D01*
X63350000Y-73800000D01*
X62350000Y-73800000D01*
X62350000Y-74500000D01*
X61850000Y-74500000D01*
X61850000Y-73800000D01*
X60850000Y-73800000D01*
X60850000Y-73948670D01*
X60146240Y-73948670D01*
X60101135Y-73872402D01*
X60101133Y-73872400D01*
X60101130Y-73872396D01*
X59987603Y-73758869D01*
X59987595Y-73758863D01*
X59849393Y-73677131D01*
X59849388Y-73677129D01*
X59695208Y-73632335D01*
X59695202Y-73632334D01*
X59659181Y-73629500D01*
X59260830Y-73629500D01*
X59260808Y-73629501D01*
X59224794Y-73632335D01*
X59070611Y-73677129D01*
X59070604Y-73677132D01*
X59013119Y-73711128D01*
X58945395Y-73728309D01*
X58886881Y-73711128D01*
X58829395Y-73677132D01*
X58829388Y-73677129D01*
X58675208Y-73632335D01*
X58675202Y-73632334D01*
X58639181Y-73629500D01*
X58240830Y-73629500D01*
X58240808Y-73629501D01*
X58204794Y-73632335D01*
X58050611Y-73677129D01*
X58050606Y-73677131D01*
X57912404Y-73758863D01*
X57912396Y-73758869D01*
X57888085Y-73783181D01*
X57826762Y-73816666D01*
X57800404Y-73819500D01*
X57379766Y-73819500D01*
X57312727Y-73799815D01*
X57310875Y-73798602D01*
X57179185Y-73710609D01*
X57179172Y-73710602D01*
X57033501Y-73650264D01*
X57033489Y-73650261D01*
X56878845Y-73619500D01*
X56878842Y-73619500D01*
X56721158Y-73619500D01*
X56721155Y-73619500D01*
X56566510Y-73650261D01*
X56566498Y-73650264D01*
X56420827Y-73710602D01*
X56420814Y-73710609D01*
X56289711Y-73798210D01*
X56289707Y-73798213D01*
X56178213Y-73909707D01*
X56178210Y-73909711D01*
X56090609Y-74040814D01*
X56090602Y-74040827D01*
X56030264Y-74186498D01*
X56030261Y-74186510D01*
X55999500Y-74341153D01*
X46300500Y-74341153D01*
X46300500Y-73151329D01*
X60850000Y-73151329D01*
X60850000Y-73300000D01*
X61850000Y-73300000D01*
X62350000Y-73300000D01*
X63350000Y-73300000D01*
X63350000Y-73151329D01*
X63334814Y-73035980D01*
X63334812Y-73035975D01*
X63275366Y-72892458D01*
X63275366Y-72892457D01*
X63180792Y-72769207D01*
X63057541Y-72674633D01*
X62914024Y-72615187D01*
X62914019Y-72615185D01*
X62798671Y-72600000D01*
X62350000Y-72600000D01*
X62350000Y-73300000D01*
X61850000Y-73300000D01*
X61850000Y-72600000D01*
X61401329Y-72600000D01*
X61285980Y-72615185D01*
X61285975Y-72615187D01*
X61142458Y-72674633D01*
X61142457Y-72674633D01*
X61019207Y-72769207D01*
X60924633Y-72892457D01*
X60924633Y-72892458D01*
X60865187Y-73035975D01*
X60865185Y-73035980D01*
X60850000Y-73151329D01*
X46300500Y-73151329D01*
X46300500Y-63971153D01*
X57899500Y-63971153D01*
X57899500Y-64128846D01*
X57930261Y-64283489D01*
X57930264Y-64283501D01*
X57979574Y-64402548D01*
X57987043Y-64472018D01*
X57979574Y-64497452D01*
X57930264Y-64616498D01*
X57930261Y-64616510D01*
X57899500Y-64771153D01*
X57899500Y-64928846D01*
X57930261Y-65083489D01*
X57930264Y-65083501D01*
X57990602Y-65229172D01*
X57990609Y-65229185D01*
X58078210Y-65360288D01*
X58078213Y-65360292D01*
X58189707Y-65471786D01*
X58189711Y-65471789D01*
X58320814Y-65559390D01*
X58320827Y-65559397D01*
X58466498Y-65619735D01*
X58466503Y-65619737D01*
X58621153Y-65650499D01*
X58621156Y-65650500D01*
X58621158Y-65650500D01*
X58778844Y-65650500D01*
X58778845Y-65650499D01*
X58933497Y-65619737D01*
X59052548Y-65570425D01*
X59122017Y-65562956D01*
X59147452Y-65570425D01*
X59241535Y-65609395D01*
X59266503Y-65619737D01*
X59421153Y-65650499D01*
X59421156Y-65650500D01*
X59421158Y-65650500D01*
X59578844Y-65650500D01*
X59578845Y-65650499D01*
X59733497Y-65619737D01*
X59828323Y-65580458D01*
X59897792Y-65572990D01*
X59944664Y-65591916D01*
X59970821Y-65609394D01*
X60116503Y-65669737D01*
X60271153Y-65700499D01*
X60271156Y-65700500D01*
X60271158Y-65700500D01*
X60428844Y-65700500D01*
X60428845Y-65700499D01*
X60583497Y-65669737D01*
X60729179Y-65609394D01*
X60860289Y-65521789D01*
X60971789Y-65410289D01*
X61059394Y-65279179D01*
X61119737Y-65133497D01*
X61150500Y-64978842D01*
X61150500Y-64821158D01*
X61150500Y-64821155D01*
X61150499Y-64821153D01*
X61119738Y-64666510D01*
X61119737Y-64666503D01*
X61119735Y-64666498D01*
X61060070Y-64522452D01*
X61052601Y-64452983D01*
X61060070Y-64427548D01*
X61119735Y-64283501D01*
X61119737Y-64283497D01*
X61150500Y-64128842D01*
X61150500Y-63971158D01*
X61150500Y-63971155D01*
X61150499Y-63971153D01*
X61119738Y-63816510D01*
X61119737Y-63816503D01*
X61119735Y-63816498D01*
X61059397Y-63670827D01*
X61059390Y-63670814D01*
X60971789Y-63539711D01*
X60971786Y-63539707D01*
X60860292Y-63428213D01*
X60860288Y-63428210D01*
X60729185Y-63340609D01*
X60729172Y-63340602D01*
X60583501Y-63280264D01*
X60583489Y-63280261D01*
X60428845Y-63249500D01*
X60428842Y-63249500D01*
X60271158Y-63249500D01*
X60271155Y-63249500D01*
X60116510Y-63280261D01*
X60116498Y-63280264D01*
X59972452Y-63339930D01*
X59902983Y-63347399D01*
X59877548Y-63339930D01*
X59733501Y-63280264D01*
X59733489Y-63280261D01*
X59578845Y-63249500D01*
X59578842Y-63249500D01*
X59421158Y-63249500D01*
X59421155Y-63249500D01*
X59266510Y-63280261D01*
X59266498Y-63280264D01*
X59147452Y-63329574D01*
X59077982Y-63337043D01*
X59052548Y-63329574D01*
X58933501Y-63280264D01*
X58933489Y-63280261D01*
X58778845Y-63249500D01*
X58778842Y-63249500D01*
X58621158Y-63249500D01*
X58621155Y-63249500D01*
X58466510Y-63280261D01*
X58466498Y-63280264D01*
X58320827Y-63340602D01*
X58320814Y-63340609D01*
X58189711Y-63428210D01*
X58189707Y-63428213D01*
X58078213Y-63539707D01*
X58078210Y-63539711D01*
X57990609Y-63670814D01*
X57990602Y-63670827D01*
X57930264Y-63816498D01*
X57930261Y-63816510D01*
X57899500Y-63971153D01*
X46300500Y-63971153D01*
X46300500Y-61974500D01*
X46320185Y-61907461D01*
X46372989Y-61861706D01*
X46424500Y-61850500D01*
X82425500Y-61850500D01*
X82492539Y-61870185D01*
G37*
%TD.AperFunction*%
%TD*%
M02*
