%TF.GenerationSoftware,KiCad,Pcbnew,10.0.1*%
%TF.CreationDate,2026-06-21T12:42:06+08:00*%
%TF.ProjectId,buzzer,62757a7a-6572-42e6-9b69-6361645f7063,rev?*%
%TF.SameCoordinates,Original*%
%TF.FileFunction,Paste,Bot*%
%TF.FilePolarity,Positive*%
%FSLAX46Y46*%
G04 Gerber Fmt 4.6, Leading zero omitted, Abs format (unit mm)*
G04 Created by KiCad (PCBNEW 10.0.1) date 2026-06-21 12:42:06*
%MOMM*%
%LPD*%
G01*
G04 APERTURE LIST*
%ADD10R,3.200000X1.800000*%
%ADD11R,5.700000X1.200000*%
%ADD12R,3.000000X1.600000*%
%ADD13R,2.400000X1.200000*%
%ADD14C,1.200000*%
%ADD15R,3.000000X3.000000*%
G04 APERTURE END LIST*
D10*
%TO.C,J4*%
X82225000Y-96900000D03*
X82225000Y-90100000D03*
D11*
X80225000Y-92500000D03*
X80225000Y-94500000D03*
%TD*%
D10*
%TO.C,J6*%
X46675000Y-71650000D03*
X46675000Y-78450000D03*
D11*
X48675000Y-76050000D03*
X48675000Y-74050000D03*
%TD*%
D10*
%TO.C,J2*%
X82225000Y-78500000D03*
X82225000Y-71700000D03*
D11*
X80225000Y-74100000D03*
X80225000Y-76100000D03*
%TD*%
D10*
%TO.C,J1*%
X82200000Y-69300000D03*
X82200000Y-62500000D03*
D11*
X80200000Y-64900000D03*
X80200000Y-66900000D03*
%TD*%
D10*
%TO.C,J3*%
X82225000Y-87750000D03*
X82225000Y-80950000D03*
D11*
X80225000Y-83350000D03*
X80225000Y-85350000D03*
%TD*%
D10*
%TO.C,J8*%
X46675000Y-90200000D03*
X46675000Y-97000000D03*
D11*
X48675000Y-94600000D03*
X48675000Y-92600000D03*
%TD*%
D10*
%TO.C,J7*%
X46675000Y-80900000D03*
X46675000Y-87700000D03*
D11*
X48675000Y-85300000D03*
X48675000Y-83300000D03*
%TD*%
D10*
%TO.C,J5*%
X46700000Y-62450000D03*
X46700000Y-69250000D03*
D11*
X48700000Y-66850000D03*
X48700000Y-64850000D03*
%TD*%
D12*
%TO.C,M1*%
X73035000Y-64260000D03*
X73035000Y-66800000D03*
X73035000Y-69340000D03*
X73035000Y-71880000D03*
X73035000Y-74420000D03*
X73035000Y-76960000D03*
X73035000Y-79500000D03*
X55800000Y-79500000D03*
X55800000Y-76960000D03*
X55800000Y-74420000D03*
X55800000Y-71880000D03*
X55800000Y-69340000D03*
X55800000Y-66800000D03*
X55800000Y-64260000D03*
D13*
X69020000Y-69580000D03*
X69020000Y-71680000D03*
D14*
X65690000Y-63200000D03*
X65690000Y-65740000D03*
X65690000Y-68280000D03*
X63150000Y-68280000D03*
X63150000Y-65740000D03*
X63150000Y-63200000D03*
D15*
X61920000Y-72630000D03*
%TD*%
M02*
