%TF.GenerationSoftware,KiCad,Pcbnew,10.0.1*%
%TF.CreationDate,2026-06-21T12:42:06+08:00*%
%TF.ProjectId,buzzer,62757a7a-6572-42e6-9b69-6361645f7063,rev?*%
%TF.SameCoordinates,Original*%
%TF.FileFunction,Legend,Bot*%
%TF.FilePolarity,Positive*%
%FSLAX46Y46*%
G04 Gerber Fmt 4.6, Leading zero omitted, Abs format (unit mm)*
G04 Created by KiCad (PCBNEW 10.0.1) date 2026-06-21 12:42:06*
%MOMM*%
%LPD*%
G01*
G04 APERTURE LIST*
%ADD10C,0.150000*%
%ADD11C,0.100000*%
%ADD12C,0.120000*%
G04 APERTURE END LIST*
D10*
X78983333Y-95854819D02*
X78983333Y-96569104D01*
X78983333Y-96569104D02*
X79030952Y-96711961D01*
X79030952Y-96711961D02*
X79126190Y-96807200D01*
X79126190Y-96807200D02*
X79269047Y-96854819D01*
X79269047Y-96854819D02*
X79364285Y-96854819D01*
X78078571Y-96188152D02*
X78078571Y-96854819D01*
X78316666Y-95807200D02*
X78554761Y-96521485D01*
X78554761Y-96521485D02*
X77935714Y-96521485D01*
X50783333Y-71204819D02*
X50783333Y-71919104D01*
X50783333Y-71919104D02*
X50830952Y-72061961D01*
X50830952Y-72061961D02*
X50926190Y-72157200D01*
X50926190Y-72157200D02*
X51069047Y-72204819D01*
X51069047Y-72204819D02*
X51164285Y-72204819D01*
X49878571Y-71204819D02*
X50069047Y-71204819D01*
X50069047Y-71204819D02*
X50164285Y-71252438D01*
X50164285Y-71252438D02*
X50211904Y-71300057D01*
X50211904Y-71300057D02*
X50307142Y-71442914D01*
X50307142Y-71442914D02*
X50354761Y-71633390D01*
X50354761Y-71633390D02*
X50354761Y-72014342D01*
X50354761Y-72014342D02*
X50307142Y-72109580D01*
X50307142Y-72109580D02*
X50259523Y-72157200D01*
X50259523Y-72157200D02*
X50164285Y-72204819D01*
X50164285Y-72204819D02*
X49973809Y-72204819D01*
X49973809Y-72204819D02*
X49878571Y-72157200D01*
X49878571Y-72157200D02*
X49830952Y-72109580D01*
X49830952Y-72109580D02*
X49783333Y-72014342D01*
X49783333Y-72014342D02*
X49783333Y-71776247D01*
X49783333Y-71776247D02*
X49830952Y-71681009D01*
X49830952Y-71681009D02*
X49878571Y-71633390D01*
X49878571Y-71633390D02*
X49973809Y-71585771D01*
X49973809Y-71585771D02*
X50164285Y-71585771D01*
X50164285Y-71585771D02*
X50259523Y-71633390D01*
X50259523Y-71633390D02*
X50307142Y-71681009D01*
X50307142Y-71681009D02*
X50354761Y-71776247D01*
X78983333Y-77554819D02*
X78983333Y-78269104D01*
X78983333Y-78269104D02*
X79030952Y-78411961D01*
X79030952Y-78411961D02*
X79126190Y-78507200D01*
X79126190Y-78507200D02*
X79269047Y-78554819D01*
X79269047Y-78554819D02*
X79364285Y-78554819D01*
X78554761Y-77650057D02*
X78507142Y-77602438D01*
X78507142Y-77602438D02*
X78411904Y-77554819D01*
X78411904Y-77554819D02*
X78173809Y-77554819D01*
X78173809Y-77554819D02*
X78078571Y-77602438D01*
X78078571Y-77602438D02*
X78030952Y-77650057D01*
X78030952Y-77650057D02*
X77983333Y-77745295D01*
X77983333Y-77745295D02*
X77983333Y-77840533D01*
X77983333Y-77840533D02*
X78030952Y-77983390D01*
X78030952Y-77983390D02*
X78602380Y-78554819D01*
X78602380Y-78554819D02*
X77983333Y-78554819D01*
X78888115Y-68248650D02*
X78888115Y-68962935D01*
X78888115Y-68962935D02*
X78935734Y-69105792D01*
X78935734Y-69105792D02*
X79030972Y-69201031D01*
X79030972Y-69201031D02*
X79173829Y-69248650D01*
X79173829Y-69248650D02*
X79269067Y-69248650D01*
X77888115Y-69248650D02*
X78459543Y-69248650D01*
X78173829Y-69248650D02*
X78173829Y-68248650D01*
X78173829Y-68248650D02*
X78269067Y-68391507D01*
X78269067Y-68391507D02*
X78364305Y-68486745D01*
X78364305Y-68486745D02*
X78459543Y-68534364D01*
X78883333Y-86854819D02*
X78883333Y-87569104D01*
X78883333Y-87569104D02*
X78930952Y-87711961D01*
X78930952Y-87711961D02*
X79026190Y-87807200D01*
X79026190Y-87807200D02*
X79169047Y-87854819D01*
X79169047Y-87854819D02*
X79264285Y-87854819D01*
X78502380Y-86854819D02*
X77883333Y-86854819D01*
X77883333Y-86854819D02*
X78216666Y-87235771D01*
X78216666Y-87235771D02*
X78073809Y-87235771D01*
X78073809Y-87235771D02*
X77978571Y-87283390D01*
X77978571Y-87283390D02*
X77930952Y-87331009D01*
X77930952Y-87331009D02*
X77883333Y-87426247D01*
X77883333Y-87426247D02*
X77883333Y-87664342D01*
X77883333Y-87664342D02*
X77930952Y-87759580D01*
X77930952Y-87759580D02*
X77978571Y-87807200D01*
X77978571Y-87807200D02*
X78073809Y-87854819D01*
X78073809Y-87854819D02*
X78359523Y-87854819D01*
X78359523Y-87854819D02*
X78454761Y-87807200D01*
X78454761Y-87807200D02*
X78502380Y-87759580D01*
X50833333Y-89754819D02*
X50833333Y-90469104D01*
X50833333Y-90469104D02*
X50880952Y-90611961D01*
X50880952Y-90611961D02*
X50976190Y-90707200D01*
X50976190Y-90707200D02*
X51119047Y-90754819D01*
X51119047Y-90754819D02*
X51214285Y-90754819D01*
X50214285Y-90183390D02*
X50309523Y-90135771D01*
X50309523Y-90135771D02*
X50357142Y-90088152D01*
X50357142Y-90088152D02*
X50404761Y-89992914D01*
X50404761Y-89992914D02*
X50404761Y-89945295D01*
X50404761Y-89945295D02*
X50357142Y-89850057D01*
X50357142Y-89850057D02*
X50309523Y-89802438D01*
X50309523Y-89802438D02*
X50214285Y-89754819D01*
X50214285Y-89754819D02*
X50023809Y-89754819D01*
X50023809Y-89754819D02*
X49928571Y-89802438D01*
X49928571Y-89802438D02*
X49880952Y-89850057D01*
X49880952Y-89850057D02*
X49833333Y-89945295D01*
X49833333Y-89945295D02*
X49833333Y-89992914D01*
X49833333Y-89992914D02*
X49880952Y-90088152D01*
X49880952Y-90088152D02*
X49928571Y-90135771D01*
X49928571Y-90135771D02*
X50023809Y-90183390D01*
X50023809Y-90183390D02*
X50214285Y-90183390D01*
X50214285Y-90183390D02*
X50309523Y-90231009D01*
X50309523Y-90231009D02*
X50357142Y-90278628D01*
X50357142Y-90278628D02*
X50404761Y-90373866D01*
X50404761Y-90373866D02*
X50404761Y-90564342D01*
X50404761Y-90564342D02*
X50357142Y-90659580D01*
X50357142Y-90659580D02*
X50309523Y-90707200D01*
X50309523Y-90707200D02*
X50214285Y-90754819D01*
X50214285Y-90754819D02*
X50023809Y-90754819D01*
X50023809Y-90754819D02*
X49928571Y-90707200D01*
X49928571Y-90707200D02*
X49880952Y-90659580D01*
X49880952Y-90659580D02*
X49833333Y-90564342D01*
X49833333Y-90564342D02*
X49833333Y-90373866D01*
X49833333Y-90373866D02*
X49880952Y-90278628D01*
X49880952Y-90278628D02*
X49928571Y-90231009D01*
X49928571Y-90231009D02*
X50023809Y-90183390D01*
X50833333Y-80704819D02*
X50833333Y-81419104D01*
X50833333Y-81419104D02*
X50880952Y-81561961D01*
X50880952Y-81561961D02*
X50976190Y-81657200D01*
X50976190Y-81657200D02*
X51119047Y-81704819D01*
X51119047Y-81704819D02*
X51214285Y-81704819D01*
X50452380Y-80704819D02*
X49785714Y-80704819D01*
X49785714Y-80704819D02*
X50214285Y-81704819D01*
X50733333Y-62054819D02*
X50733333Y-62769104D01*
X50733333Y-62769104D02*
X50780952Y-62911961D01*
X50780952Y-62911961D02*
X50876190Y-63007200D01*
X50876190Y-63007200D02*
X51019047Y-63054819D01*
X51019047Y-63054819D02*
X51114285Y-63054819D01*
X49780952Y-62054819D02*
X50257142Y-62054819D01*
X50257142Y-62054819D02*
X50304761Y-62531009D01*
X50304761Y-62531009D02*
X50257142Y-62483390D01*
X50257142Y-62483390D02*
X50161904Y-62435771D01*
X50161904Y-62435771D02*
X49923809Y-62435771D01*
X49923809Y-62435771D02*
X49828571Y-62483390D01*
X49828571Y-62483390D02*
X49780952Y-62531009D01*
X49780952Y-62531009D02*
X49733333Y-62626247D01*
X49733333Y-62626247D02*
X49733333Y-62864342D01*
X49733333Y-62864342D02*
X49780952Y-62959580D01*
X49780952Y-62959580D02*
X49828571Y-63007200D01*
X49828571Y-63007200D02*
X49923809Y-63054819D01*
X49923809Y-63054819D02*
X50161904Y-63054819D01*
X50161904Y-63054819D02*
X50257142Y-63007200D01*
X50257142Y-63007200D02*
X50304761Y-62959580D01*
X65229523Y-77724819D02*
X65229523Y-76724819D01*
X65229523Y-76724819D02*
X64896190Y-77439104D01*
X64896190Y-77439104D02*
X64562857Y-76724819D01*
X64562857Y-76724819D02*
X64562857Y-77724819D01*
X63562857Y-77724819D02*
X64134285Y-77724819D01*
X63848571Y-77724819D02*
X63848571Y-76724819D01*
X63848571Y-76724819D02*
X63943809Y-76867676D01*
X63943809Y-76867676D02*
X64039047Y-76962914D01*
X64039047Y-76962914D02*
X64134285Y-77010533D01*
D11*
X59893890Y-74263332D02*
X59893890Y-73977618D01*
X59393890Y-74120475D02*
X59893890Y-74120475D01*
X59393890Y-73810952D02*
X59893890Y-73810952D01*
X59655795Y-73810952D02*
X59655795Y-73525238D01*
X59393890Y-73525238D02*
X59893890Y-73525238D01*
X59655795Y-73287142D02*
X59655795Y-73120475D01*
X59393890Y-73049047D02*
X59393890Y-73287142D01*
X59393890Y-73287142D02*
X59893890Y-73287142D01*
X59893890Y-73287142D02*
X59893890Y-73049047D01*
X59393890Y-72549047D02*
X59631985Y-72715713D01*
X59393890Y-72834761D02*
X59893890Y-72834761D01*
X59893890Y-72834761D02*
X59893890Y-72644285D01*
X59893890Y-72644285D02*
X59870080Y-72596666D01*
X59870080Y-72596666D02*
X59846271Y-72572856D01*
X59846271Y-72572856D02*
X59798652Y-72549047D01*
X59798652Y-72549047D02*
X59727223Y-72549047D01*
X59727223Y-72549047D02*
X59679604Y-72572856D01*
X59679604Y-72572856D02*
X59655795Y-72596666D01*
X59655795Y-72596666D02*
X59631985Y-72644285D01*
X59631985Y-72644285D02*
X59631985Y-72834761D01*
X59393890Y-72334761D02*
X59893890Y-72334761D01*
X59893890Y-72334761D02*
X59536747Y-72168094D01*
X59536747Y-72168094D02*
X59893890Y-72001428D01*
X59893890Y-72001428D02*
X59393890Y-72001428D01*
X59536747Y-71787141D02*
X59536747Y-71549046D01*
X59393890Y-71834760D02*
X59893890Y-71668094D01*
X59893890Y-71668094D02*
X59393890Y-71501427D01*
X59393890Y-71096666D02*
X59393890Y-71334761D01*
X59393890Y-71334761D02*
X59893890Y-71334761D01*
X61653890Y-64069047D02*
X62153890Y-64069047D01*
X62153890Y-64069047D02*
X61796747Y-63902380D01*
X61796747Y-63902380D02*
X62153890Y-63735714D01*
X62153890Y-63735714D02*
X61653890Y-63735714D01*
X62153890Y-63569046D02*
X62153890Y-63283332D01*
X61653890Y-63426189D02*
X62153890Y-63426189D01*
X61653890Y-63116666D02*
X62153890Y-63116666D01*
X62153890Y-63116666D02*
X62153890Y-62997618D01*
X62153890Y-62997618D02*
X62130080Y-62926190D01*
X62130080Y-62926190D02*
X62082461Y-62878571D01*
X62082461Y-62878571D02*
X62034842Y-62854761D01*
X62034842Y-62854761D02*
X61939604Y-62830952D01*
X61939604Y-62830952D02*
X61868176Y-62830952D01*
X61868176Y-62830952D02*
X61772938Y-62854761D01*
X61772938Y-62854761D02*
X61725319Y-62878571D01*
X61725319Y-62878571D02*
X61677700Y-62926190D01*
X61677700Y-62926190D02*
X61653890Y-62997618D01*
X61653890Y-62997618D02*
X61653890Y-63116666D01*
X62153890Y-62521428D02*
X62153890Y-62426190D01*
X62153890Y-62426190D02*
X62130080Y-62378571D01*
X62130080Y-62378571D02*
X62082461Y-62330952D01*
X62082461Y-62330952D02*
X61987223Y-62307142D01*
X61987223Y-62307142D02*
X61820557Y-62307142D01*
X61820557Y-62307142D02*
X61725319Y-62330952D01*
X61725319Y-62330952D02*
X61677700Y-62378571D01*
X61677700Y-62378571D02*
X61653890Y-62426190D01*
X61653890Y-62426190D02*
X61653890Y-62521428D01*
X61653890Y-62521428D02*
X61677700Y-62569047D01*
X61677700Y-62569047D02*
X61725319Y-62616666D01*
X61725319Y-62616666D02*
X61820557Y-62640475D01*
X61820557Y-62640475D02*
X61987223Y-62640475D01*
X61987223Y-62640475D02*
X62082461Y-62616666D01*
X62082461Y-62616666D02*
X62130080Y-62569047D01*
X62130080Y-62569047D02*
X62153890Y-62521428D01*
X62130080Y-66120952D02*
X62153890Y-66168571D01*
X62153890Y-66168571D02*
X62153890Y-66240000D01*
X62153890Y-66240000D02*
X62130080Y-66311428D01*
X62130080Y-66311428D02*
X62082461Y-66359047D01*
X62082461Y-66359047D02*
X62034842Y-66382857D01*
X62034842Y-66382857D02*
X61939604Y-66406666D01*
X61939604Y-66406666D02*
X61868176Y-66406666D01*
X61868176Y-66406666D02*
X61772938Y-66382857D01*
X61772938Y-66382857D02*
X61725319Y-66359047D01*
X61725319Y-66359047D02*
X61677700Y-66311428D01*
X61677700Y-66311428D02*
X61653890Y-66240000D01*
X61653890Y-66240000D02*
X61653890Y-66192381D01*
X61653890Y-66192381D02*
X61677700Y-66120952D01*
X61677700Y-66120952D02*
X61701509Y-66097143D01*
X61701509Y-66097143D02*
X61868176Y-66097143D01*
X61868176Y-66097143D02*
X61868176Y-66192381D01*
X61653890Y-65882857D02*
X62153890Y-65882857D01*
X62153890Y-65882857D02*
X61653890Y-65597143D01*
X61653890Y-65597143D02*
X62153890Y-65597143D01*
X61653890Y-65359047D02*
X62153890Y-65359047D01*
X62153890Y-65359047D02*
X62153890Y-65239999D01*
X62153890Y-65239999D02*
X62130080Y-65168571D01*
X62130080Y-65168571D02*
X62082461Y-65120952D01*
X62082461Y-65120952D02*
X62034842Y-65097142D01*
X62034842Y-65097142D02*
X61939604Y-65073333D01*
X61939604Y-65073333D02*
X61868176Y-65073333D01*
X61868176Y-65073333D02*
X61772938Y-65097142D01*
X61772938Y-65097142D02*
X61725319Y-65120952D01*
X61725319Y-65120952D02*
X61677700Y-65168571D01*
X61677700Y-65168571D02*
X61653890Y-65239999D01*
X61653890Y-65239999D02*
X61653890Y-65359047D01*
X61653890Y-69137142D02*
X62153890Y-69137142D01*
X62153890Y-69137142D02*
X61796747Y-68970475D01*
X61796747Y-68970475D02*
X62153890Y-68803809D01*
X62153890Y-68803809D02*
X61653890Y-68803809D01*
X62153890Y-68637141D02*
X62153890Y-68351427D01*
X61653890Y-68494284D02*
X62153890Y-68494284D01*
X61701509Y-67899047D02*
X61677700Y-67922856D01*
X61677700Y-67922856D02*
X61653890Y-67994285D01*
X61653890Y-67994285D02*
X61653890Y-68041904D01*
X61653890Y-68041904D02*
X61677700Y-68113332D01*
X61677700Y-68113332D02*
X61725319Y-68160951D01*
X61725319Y-68160951D02*
X61772938Y-68184761D01*
X61772938Y-68184761D02*
X61868176Y-68208570D01*
X61868176Y-68208570D02*
X61939604Y-68208570D01*
X61939604Y-68208570D02*
X62034842Y-68184761D01*
X62034842Y-68184761D02*
X62082461Y-68160951D01*
X62082461Y-68160951D02*
X62130080Y-68113332D01*
X62130080Y-68113332D02*
X62153890Y-68041904D01*
X62153890Y-68041904D02*
X62153890Y-67994285D01*
X62153890Y-67994285D02*
X62130080Y-67922856D01*
X62130080Y-67922856D02*
X62106271Y-67899047D01*
X61653890Y-67684761D02*
X62153890Y-67684761D01*
X61653890Y-67399047D02*
X61939604Y-67613332D01*
X62153890Y-67399047D02*
X61868176Y-67684761D01*
X64193890Y-63926190D02*
X64693890Y-63926190D01*
X64693890Y-63926190D02*
X64336747Y-63759523D01*
X64336747Y-63759523D02*
X64693890Y-63592857D01*
X64693890Y-63592857D02*
X64193890Y-63592857D01*
X64693890Y-63426189D02*
X64693890Y-63140475D01*
X64193890Y-63283332D02*
X64693890Y-63283332D01*
X64193890Y-62973809D02*
X64693890Y-62973809D01*
X64693890Y-62973809D02*
X64693890Y-62854761D01*
X64693890Y-62854761D02*
X64670080Y-62783333D01*
X64670080Y-62783333D02*
X64622461Y-62735714D01*
X64622461Y-62735714D02*
X64574842Y-62711904D01*
X64574842Y-62711904D02*
X64479604Y-62688095D01*
X64479604Y-62688095D02*
X64408176Y-62688095D01*
X64408176Y-62688095D02*
X64312938Y-62711904D01*
X64312938Y-62711904D02*
X64265319Y-62735714D01*
X64265319Y-62735714D02*
X64217700Y-62783333D01*
X64217700Y-62783333D02*
X64193890Y-62854761D01*
X64193890Y-62854761D02*
X64193890Y-62973809D01*
X64193890Y-62473809D02*
X64693890Y-62473809D01*
X64455795Y-66109047D02*
X64455795Y-65942380D01*
X64193890Y-65870952D02*
X64193890Y-66109047D01*
X64193890Y-66109047D02*
X64693890Y-66109047D01*
X64693890Y-66109047D02*
X64693890Y-65870952D01*
X64193890Y-65656666D02*
X64693890Y-65656666D01*
X64693890Y-65656666D02*
X64193890Y-65370952D01*
X64193890Y-65370952D02*
X64693890Y-65370952D01*
X64193890Y-69160952D02*
X64693890Y-69160952D01*
X64693890Y-69160952D02*
X64336747Y-68994285D01*
X64336747Y-68994285D02*
X64693890Y-68827619D01*
X64693890Y-68827619D02*
X64193890Y-68827619D01*
X64693890Y-68660951D02*
X64693890Y-68375237D01*
X64193890Y-68518094D02*
X64693890Y-68518094D01*
X64193890Y-68208571D02*
X64693890Y-68208571D01*
X64693890Y-68208571D02*
X64336747Y-68041904D01*
X64336747Y-68041904D02*
X64693890Y-67875238D01*
X64693890Y-67875238D02*
X64193890Y-67875238D01*
X64217700Y-67660951D02*
X64193890Y-67589523D01*
X64193890Y-67589523D02*
X64193890Y-67470475D01*
X64193890Y-67470475D02*
X64217700Y-67422856D01*
X64217700Y-67422856D02*
X64241509Y-67399047D01*
X64241509Y-67399047D02*
X64289128Y-67375237D01*
X64289128Y-67375237D02*
X64336747Y-67375237D01*
X64336747Y-67375237D02*
X64384366Y-67399047D01*
X64384366Y-67399047D02*
X64408176Y-67422856D01*
X64408176Y-67422856D02*
X64431985Y-67470475D01*
X64431985Y-67470475D02*
X64455795Y-67565713D01*
X64455795Y-67565713D02*
X64479604Y-67613332D01*
X64479604Y-67613332D02*
X64503414Y-67637142D01*
X64503414Y-67637142D02*
X64551033Y-67660951D01*
X64551033Y-67660951D02*
X64598652Y-67660951D01*
X64598652Y-67660951D02*
X64646271Y-67637142D01*
X64646271Y-67637142D02*
X64670080Y-67613332D01*
X64670080Y-67613332D02*
X64693890Y-67565713D01*
X64693890Y-67565713D02*
X64693890Y-67446666D01*
X64693890Y-67446666D02*
X64670080Y-67375237D01*
D10*
X66603990Y-71418095D02*
X66556371Y-71275238D01*
X66556371Y-71275238D02*
X66508752Y-71227619D01*
X66508752Y-71227619D02*
X66413514Y-71180000D01*
X66413514Y-71180000D02*
X66270657Y-71180000D01*
X66270657Y-71180000D02*
X66175419Y-71227619D01*
X66175419Y-71227619D02*
X66127800Y-71275238D01*
X66127800Y-71275238D02*
X66080180Y-71370476D01*
X66080180Y-71370476D02*
X66080180Y-71751428D01*
X66080180Y-71751428D02*
X67080180Y-71751428D01*
X67080180Y-71751428D02*
X67080180Y-71418095D01*
X67080180Y-71418095D02*
X67032561Y-71322857D01*
X67032561Y-71322857D02*
X66984942Y-71275238D01*
X66984942Y-71275238D02*
X66889704Y-71227619D01*
X66889704Y-71227619D02*
X66794466Y-71227619D01*
X66794466Y-71227619D02*
X66699228Y-71275238D01*
X66699228Y-71275238D02*
X66651609Y-71322857D01*
X66651609Y-71322857D02*
X66603990Y-71418095D01*
X66603990Y-71418095D02*
X66603990Y-71751428D01*
X66365895Y-70799047D02*
X66365895Y-70322857D01*
X66080180Y-70894285D02*
X67080180Y-70560952D01*
X67080180Y-70560952D02*
X66080180Y-70227619D01*
X67080180Y-70037142D02*
X67080180Y-69465714D01*
X66080180Y-69751428D02*
X67080180Y-69751428D01*
X69200951Y-68253866D02*
X68439047Y-68253866D01*
X69200951Y-73353866D02*
X68439047Y-73353866D01*
X68819999Y-73734819D02*
X68819999Y-72972914D01*
%TO.C,J4*%
D12*
X79725000Y-89500000D02*
X80225000Y-89500000D01*
X79725000Y-91500000D02*
X79725000Y-89500000D01*
X79725000Y-97500000D02*
X79725000Y-95500000D01*
X79725000Y-97500000D02*
X80225000Y-97500000D01*
X84475000Y-91000000D02*
X84475000Y-91500000D01*
X84475000Y-91500000D02*
X84725000Y-91500000D01*
X84475000Y-95500000D02*
X84475000Y-96000000D01*
X84475000Y-96000000D02*
X84725000Y-96000000D01*
X84725000Y-89500000D02*
X84225000Y-89500000D01*
X84725000Y-89500000D02*
X84725000Y-91000000D01*
X84725000Y-91000000D02*
X84475000Y-91000000D01*
X84725000Y-91500000D02*
X84725000Y-95500000D01*
X84725000Y-95500000D02*
X84475000Y-95500000D01*
X84725000Y-96000000D02*
X84725000Y-97500000D01*
X84725000Y-97500000D02*
X84225000Y-97500000D01*
X79225000Y-90500000D02*
G75*
G02*
X78825000Y-90500000I-200000J0D01*
G01*
X78825000Y-90500000D02*
G75*
G02*
X79225000Y-90500000I200000J0D01*
G01*
%TO.C,J6*%
X44175000Y-71050000D02*
X44675000Y-71050000D01*
X44175000Y-72550000D02*
X44175000Y-71050000D01*
X44175000Y-73050000D02*
X44425000Y-73050000D01*
X44175000Y-77050000D02*
X44175000Y-73050000D01*
X44175000Y-77550000D02*
X44425000Y-77550000D01*
X44175000Y-79050000D02*
X44175000Y-77550000D01*
X44175000Y-79050000D02*
X44675000Y-79050000D01*
X44425000Y-72550000D02*
X44175000Y-72550000D01*
X44425000Y-73050000D02*
X44425000Y-72550000D01*
X44425000Y-77050000D02*
X44175000Y-77050000D01*
X44425000Y-77550000D02*
X44425000Y-77050000D01*
X49175000Y-71050000D02*
X48675000Y-71050000D01*
X49175000Y-71050000D02*
X49175000Y-73050000D01*
X49175000Y-77050000D02*
X49175000Y-79050000D01*
X49175000Y-79050000D02*
X48675000Y-79050000D01*
X50075000Y-78050000D02*
G75*
G02*
X49675000Y-78050000I-200000J0D01*
G01*
X49675000Y-78050000D02*
G75*
G02*
X50075000Y-78050000I200000J0D01*
G01*
%TO.C,J2*%
X79725000Y-71100000D02*
X80225000Y-71100000D01*
X79725000Y-73100000D02*
X79725000Y-71100000D01*
X79725000Y-79100000D02*
X79725000Y-77100000D01*
X79725000Y-79100000D02*
X80225000Y-79100000D01*
X84475000Y-72600000D02*
X84475000Y-73100000D01*
X84475000Y-73100000D02*
X84725000Y-73100000D01*
X84475000Y-77100000D02*
X84475000Y-77600000D01*
X84475000Y-77600000D02*
X84725000Y-77600000D01*
X84725000Y-71100000D02*
X84225000Y-71100000D01*
X84725000Y-71100000D02*
X84725000Y-72600000D01*
X84725000Y-72600000D02*
X84475000Y-72600000D01*
X84725000Y-73100000D02*
X84725000Y-77100000D01*
X84725000Y-77100000D02*
X84475000Y-77100000D01*
X84725000Y-77600000D02*
X84725000Y-79100000D01*
X84725000Y-79100000D02*
X84225000Y-79100000D01*
X79225000Y-72100000D02*
G75*
G02*
X78825000Y-72100000I-200000J0D01*
G01*
X78825000Y-72100000D02*
G75*
G02*
X79225000Y-72100000I200000J0D01*
G01*
%TO.C,J1*%
X79700000Y-61900000D02*
X80200000Y-61900000D01*
X79700000Y-63900000D02*
X79700000Y-61900000D01*
X79700000Y-69900000D02*
X79700000Y-67900000D01*
X79700000Y-69900000D02*
X80200000Y-69900000D01*
X84450000Y-63400000D02*
X84450000Y-63900000D01*
X84450000Y-63900000D02*
X84700000Y-63900000D01*
X84450000Y-67900000D02*
X84450000Y-68400000D01*
X84450000Y-68400000D02*
X84700000Y-68400000D01*
X84700000Y-61900000D02*
X84200000Y-61900000D01*
X84700000Y-61900000D02*
X84700000Y-63400000D01*
X84700000Y-63400000D02*
X84450000Y-63400000D01*
X84700000Y-63900000D02*
X84700000Y-67900000D01*
X84700000Y-67900000D02*
X84450000Y-67900000D01*
X84700000Y-68400000D02*
X84700000Y-69900000D01*
X84700000Y-69900000D02*
X84200000Y-69900000D01*
X79200000Y-62900000D02*
G75*
G02*
X78800000Y-62900000I-200000J0D01*
G01*
X78800000Y-62900000D02*
G75*
G02*
X79200000Y-62900000I200000J0D01*
G01*
%TO.C,J3*%
X79725000Y-80350000D02*
X80225000Y-80350000D01*
X79725000Y-82350000D02*
X79725000Y-80350000D01*
X79725000Y-88350000D02*
X79725000Y-86350000D01*
X79725000Y-88350000D02*
X80225000Y-88350000D01*
X84475000Y-81850000D02*
X84475000Y-82350000D01*
X84475000Y-82350000D02*
X84725000Y-82350000D01*
X84475000Y-86350000D02*
X84475000Y-86850000D01*
X84475000Y-86850000D02*
X84725000Y-86850000D01*
X84725000Y-80350000D02*
X84225000Y-80350000D01*
X84725000Y-80350000D02*
X84725000Y-81850000D01*
X84725000Y-81850000D02*
X84475000Y-81850000D01*
X84725000Y-82350000D02*
X84725000Y-86350000D01*
X84725000Y-86350000D02*
X84475000Y-86350000D01*
X84725000Y-86850000D02*
X84725000Y-88350000D01*
X84725000Y-88350000D02*
X84225000Y-88350000D01*
X79225000Y-81350000D02*
G75*
G02*
X78825000Y-81350000I-200000J0D01*
G01*
X78825000Y-81350000D02*
G75*
G02*
X79225000Y-81350000I200000J0D01*
G01*
%TO.C,J8*%
X44175000Y-89600000D02*
X44675000Y-89600000D01*
X44175000Y-91100000D02*
X44175000Y-89600000D01*
X44175000Y-91600000D02*
X44425000Y-91600000D01*
X44175000Y-95600000D02*
X44175000Y-91600000D01*
X44175000Y-96100000D02*
X44425000Y-96100000D01*
X44175000Y-97600000D02*
X44175000Y-96100000D01*
X44175000Y-97600000D02*
X44675000Y-97600000D01*
X44425000Y-91100000D02*
X44175000Y-91100000D01*
X44425000Y-91600000D02*
X44425000Y-91100000D01*
X44425000Y-95600000D02*
X44175000Y-95600000D01*
X44425000Y-96100000D02*
X44425000Y-95600000D01*
X49175000Y-89600000D02*
X48675000Y-89600000D01*
X49175000Y-89600000D02*
X49175000Y-91600000D01*
X49175000Y-95600000D02*
X49175000Y-97600000D01*
X49175000Y-97600000D02*
X48675000Y-97600000D01*
X50075000Y-96600000D02*
G75*
G02*
X49675000Y-96600000I-200000J0D01*
G01*
X49675000Y-96600000D02*
G75*
G02*
X50075000Y-96600000I200000J0D01*
G01*
%TO.C,J7*%
X44175000Y-80300000D02*
X44675000Y-80300000D01*
X44175000Y-81800000D02*
X44175000Y-80300000D01*
X44175000Y-82300000D02*
X44425000Y-82300000D01*
X44175000Y-86300000D02*
X44175000Y-82300000D01*
X44175000Y-86800000D02*
X44425000Y-86800000D01*
X44175000Y-88300000D02*
X44175000Y-86800000D01*
X44175000Y-88300000D02*
X44675000Y-88300000D01*
X44425000Y-81800000D02*
X44175000Y-81800000D01*
X44425000Y-82300000D02*
X44425000Y-81800000D01*
X44425000Y-86300000D02*
X44175000Y-86300000D01*
X44425000Y-86800000D02*
X44425000Y-86300000D01*
X49175000Y-80300000D02*
X48675000Y-80300000D01*
X49175000Y-80300000D02*
X49175000Y-82300000D01*
X49175000Y-86300000D02*
X49175000Y-88300000D01*
X49175000Y-88300000D02*
X48675000Y-88300000D01*
X50075000Y-87300000D02*
G75*
G02*
X49675000Y-87300000I-200000J0D01*
G01*
X49675000Y-87300000D02*
G75*
G02*
X50075000Y-87300000I200000J0D01*
G01*
%TO.C,J5*%
X44200000Y-61850000D02*
X44700000Y-61850000D01*
X44200000Y-63350000D02*
X44200000Y-61850000D01*
X44200000Y-63850000D02*
X44450000Y-63850000D01*
X44200000Y-67850000D02*
X44200000Y-63850000D01*
X44200000Y-68350000D02*
X44450000Y-68350000D01*
X44200000Y-69850000D02*
X44200000Y-68350000D01*
X44200000Y-69850000D02*
X44700000Y-69850000D01*
X44450000Y-63350000D02*
X44200000Y-63350000D01*
X44450000Y-63850000D02*
X44450000Y-63350000D01*
X44450000Y-67850000D02*
X44200000Y-67850000D01*
X44450000Y-68350000D02*
X44450000Y-67850000D01*
X49200000Y-61850000D02*
X48700000Y-61850000D01*
X49200000Y-61850000D02*
X49200000Y-63850000D01*
X49200000Y-67850000D02*
X49200000Y-69850000D01*
X49200000Y-69850000D02*
X48700000Y-69850000D01*
X50100000Y-68850000D02*
G75*
G02*
X49700000Y-68850000I-200000J0D01*
G01*
X49700000Y-68850000D02*
G75*
G02*
X50100000Y-68850000I200000J0D01*
G01*
%TO.C,M1*%
X55527500Y-62619000D02*
X55527500Y-81161000D01*
X56797500Y-82431000D02*
X72037500Y-82431000D01*
X72037500Y-61349000D02*
X56797500Y-61349000D01*
X73307500Y-81161000D02*
X73307500Y-62619000D01*
X59917500Y-59825000D02*
X68917500Y-59825000D01*
X68917500Y-61349000D01*
X59917500Y-61349000D01*
X59917500Y-59825000D01*
X55527500Y-62619000D02*
G75*
G02*
X56797500Y-61349000I1270000J0D01*
G01*
X56797500Y-82431000D02*
G75*
G02*
X55527500Y-81161000I0J1270000D01*
G01*
X72037500Y-61349000D02*
G75*
G02*
X73307500Y-62619000I1J-1269999D01*
G01*
X73307500Y-81161000D02*
G75*
G02*
X72037500Y-82431000I-1269999J-1D01*
G01*
%TD*%
M02*
